<svg width="20" height="38" viewBox="0 0 20 38" fill="none" xmlns="http://www.w3.org/2000/svg">
<path d="M12.3782 0.804508V6.43443H9.40103V0.804508H12.3782ZM12.0156 31.9694V37.1032H9.03843V31.9694H12.0156ZM14.1149 25.7097C14.1149 24.9845 13.9813 24.3675 13.7141 23.8585C13.4597 23.3496 13.0398 22.898 12.4545 22.5035C11.882 22.1091 11.1059 21.7274 10.1262 21.3585C8.47226 20.7223 7.01548 20.048 5.7559 19.3355C4.50905 18.6103 3.53574 17.7133 2.83598 16.6446C2.13621 15.5632 1.78633 14.1954 1.78633 12.5415C1.78633 10.9638 2.16166 9.59608 2.91232 8.43829C3.66297 7.2805 4.69989 6.38989 6.02308 5.76647C7.359 5.13032 8.9112 4.81225 10.6797 4.81225C12.0283 4.81225 13.2497 5.01581 14.3439 5.42295C15.4381 5.81736 16.3796 6.40262 17.1684 7.17872C17.9572 7.9421 18.5616 8.87724 18.9814 9.98414C19.4013 11.091 19.6112 12.357 19.6112 13.7819H14.134C14.134 13.0186 14.0513 12.3442 13.8859 11.759C13.7205 11.1737 13.4787 10.6839 13.1607 10.2895C12.8553 9.89507 12.4864 9.60245 12.0538 9.4116C11.6212 9.20803 11.1441 9.10625 10.6224 9.10625C9.84634 9.10625 9.21019 9.25893 8.71399 9.56428C8.2178 9.86963 7.85519 10.2831 7.62618 10.8048C7.40989 11.3137 7.30174 11.8989 7.30174 12.5605C7.30174 13.2094 7.41625 13.7756 7.64526 14.2591C7.887 14.7425 8.3005 15.1878 8.88575 15.595C9.47101 15.9894 10.2726 16.3965 11.2904 16.8164C12.9444 17.4525 14.3948 18.1396 15.6417 18.8775C16.8885 19.6154 17.8618 20.5188 18.5616 21.5875C19.2613 22.6562 19.6112 24.0176 19.6112 25.6716C19.6112 27.3128 19.2295 28.7124 18.4662 29.8701C17.7028 31.0152 16.634 31.8931 15.26 32.5038C13.8859 33.1018 12.2955 33.4008 10.4888 33.4008C9.31833 33.4008 8.15418 33.2481 6.99639 32.9427C5.8386 32.6247 4.78895 32.1158 3.84745 31.416C2.90595 30.7162 2.1553 29.7874 1.59549 28.6297C1.03568 27.4591 0.755771 26.0214 0.755771 24.3166H6.2521C6.2521 25.2453 6.37296 26.0214 6.6147 26.6449C6.85644 27.2556 7.17451 27.7454 7.56892 28.1144C7.97606 28.4706 8.43409 28.7251 8.94301 28.8778C9.45193 29.0304 9.96721 29.1068 10.4888 29.1068C11.3031 29.1068 11.9711 28.9605 12.4927 28.6678C13.0271 28.3752 13.4279 27.9744 13.695 27.4655C13.9749 26.9439 14.1149 26.3586 14.1149 25.7097Z" fill="#3F3B3B"/>
</svg>
