<svg width="34" height="32" viewBox="0 0 34 32" fill="none" xmlns="http://www.w3.org/2000/svg">
<path fill-rule="evenodd" clip-rule="evenodd" d="M28.961 0.560547H5.03931C2.77511 0.560547 0.933105 2.34843 0.933105 4.54604V27.7641C0.933105 29.9617 2.77511 31.7496 5.03931 31.7496H28.961C31.2253 31.7496 33.0673 29.9617 33.0673 27.7641V4.54604C33.0673 2.34843 31.2253 0.560547 28.961 0.560547ZM31.1745 27.7641C31.1745 28.9488 30.1816 29.9125 28.9611 29.9125H5.03938C3.81885 29.9125 2.82589 28.9487 2.82589 27.7641V24.4133L9.05533 19.2689C9.28265 19.0812 9.61429 19.0794 9.84375 19.2643L13.7459 22.4093C14.1222 22.7125 14.6745 22.6876 15.0202 22.3517L24.292 13.3389C24.4596 13.176 24.655 13.1601 24.7569 13.1652C24.8586 13.1702 25.0516 13.2054 25.2012 13.3842L31.1746 20.523V27.7641H31.1745ZM26.6704 12.2259L31.1745 17.6088V4.54605C31.1745 3.36142 30.1816 2.39766 28.9611 2.39766H5.03938C3.81885 2.39766 2.82589 3.36142 2.82589 4.54605V22.0013L7.82877 17.8699C8.75828 17.1023 10.1142 17.0944 11.053 17.8511L14.2909 20.4607L22.9526 12.0408C23.4532 11.5541 24.1467 11.2957 24.8539 11.3304C25.5616 11.3657 26.2237 11.6921 26.6704 12.2259Z" fill="#9DAFBD"/>
</svg>
