<svg width="71" height="78" viewBox="0 0 71 78" fill="none" xmlns="http://www.w3.org/2000/svg">
<g clip-path="url(#clip0_1_145)">
<path d="M35.9938 25.5523C29.3655 25.5523 24.019 31.3438 24.019 38.5241C24.019 45.7043 29.3655 51.4958 35.9938 51.4958C42.6222 51.4958 47.9687 45.7043 47.9687 38.5241C47.9687 31.3438 42.6222 25.5523 35.9938 25.5523ZM35.9938 46.9574C31.7104 46.9574 28.2086 43.1754 28.2086 38.5241C28.2086 33.8727 31.7 30.0907 35.9938 30.0907C40.2877 30.0907 43.779 33.8727 43.779 38.5241C43.779 43.1754 40.2773 46.9574 35.9938 46.9574V46.9574ZM51.2516 25.0217C51.2516 26.7038 50.001 28.0473 48.4585 28.0473C46.9056 28.0473 45.6654 26.6925 45.6654 25.0217C45.6654 23.3508 46.9161 21.996 48.4585 21.996C50.001 21.996 51.2516 23.3508 51.2516 25.0217ZM59.1827 28.0924C59.0055 24.0395 58.1509 20.4494 55.41 17.4915C52.6794 14.5336 49.3652 13.6078 45.6237 13.4046C41.7676 13.1675 30.2096 13.1675 26.3535 13.4046C22.6224 13.5965 19.3083 14.5223 16.5673 17.4802C13.8263 20.4381 12.9821 24.0282 12.7945 28.0811C12.5757 32.2583 12.5757 44.7785 12.7945 48.9557C12.9717 53.0087 13.8263 56.5988 16.5673 59.5566C19.3083 62.5145 22.612 63.4403 26.3535 63.6435C30.2096 63.8806 41.7676 63.8806 45.6237 63.6435C49.3652 63.4516 52.6794 62.5258 55.41 59.5566C58.1405 56.5988 58.9951 53.0087 59.1827 48.9557C59.4016 44.7785 59.4016 32.2696 59.1827 28.0924V28.0924ZM54.201 53.4377C53.3881 55.6504 51.8144 57.3552 49.7613 58.247C46.6868 59.5679 39.3914 59.2631 35.9938 59.2631C32.5963 59.2631 25.2905 59.5566 22.2264 58.247C20.1837 57.3665 18.61 55.6617 17.7866 53.4377C16.5673 50.1072 16.8487 42.2045 16.8487 38.5241C16.8487 34.8436 16.5777 26.9296 17.7866 23.6104C18.5996 21.3977 20.1733 19.6929 22.2264 18.8011C25.3009 17.4802 32.5963 17.785 35.9938 17.785C39.3914 17.785 46.6972 17.4915 49.7613 18.8011C51.804 19.6817 53.3777 21.3864 54.201 23.6104C55.4204 26.9409 55.139 34.8436 55.139 38.5241C55.139 42.2045 55.4204 50.1185 54.201 53.4377Z" fill="white"/>
</g>
<defs>
<clipPath id="clip0_1_145">
<rect width="46.6905" height="57.803" fill="white" transform="translate(12.6373 9.63379)"/>
</clipPath>
</defs>
</svg>
