<svg width="64" height="78" viewBox="0 0 64 78" fill="none" xmlns="http://www.w3.org/2000/svg">
<g clip-path="url(#clip0_1_149)">
<path d="M58.1427 21.6818C55.9655 22.5982 53.6561 23.1998 51.2914 23.4664C53.7545 22.0638 55.6458 19.8426 56.5363 17.1961C54.1948 18.5163 51.633 19.4464 48.9616 19.9464C46.7856 17.7437 43.6856 16.3672 40.2545 16.3672C33.6666 16.3672 28.3254 21.4418 28.3254 27.7008C28.3254 28.5892 28.4311 29.4541 28.6343 30.2838C18.7205 29.811 9.93095 25.299 4.04739 18.4418C3.02081 20.1158 2.43257 22.0629 2.43257 24.1397C2.43257 28.0719 4.53865 31.5408 7.73924 33.5734C5.84494 33.517 3.99231 33.0309 2.33604 32.1556C2.33536 32.2031 2.33536 32.2506 2.33536 32.2983C2.33536 37.7896 6.44715 42.3705 11.9039 43.4117C10.1474 43.8656 8.30483 43.9321 6.5171 43.6059C8.03495 48.1087 12.4404 51.3854 17.6601 51.4771C13.5776 54.5168 8.434 56.3288 2.84547 56.3288C1.88248 56.3288 0.933116 56.2751 -0.00012207 56.1704C5.27884 59.3862 11.549 61.2625 18.2854 61.2625C40.2268 61.2625 52.2249 43.9922 52.2249 29.0152C52.2249 28.5236 52.2135 28.0348 52.1904 27.5488C54.5257 25.9448 56.5413 23.958 58.1427 21.6818" fill="white"/>
</g>
<defs>
<clipPath id="clip0_1_149">
<rect width="58.1429" height="45.1012" fill="white" transform="translate(0 16.1902)"/>
</clipPath>
</defs>
</svg>
